<svg xmlns="http://www.w3.org/2000/svg" viewBox="0 0 24 24" fill="#d97706">
    <path d="M12 2C12 2 8 6 8 10C8 13.31 10.69 16 14 16C17.31 16 20 13.31 20 10C20 6 16 2 14 2C13.3 2 12.6 2.2 12 2.6C11.4 2.2 10.7 2 10 2C8.9 2 8 2.9 8 4V6.5C8 7.88 9.12 9 10.5 9H12.5C13.88 9 15 7.88 15 6.5V4C15 2.9 14.1 2 13 2C12.6 2 12.2 2.1 11.9 2.3C11.6 2.1 11.3 2 11 2C10.7 2 10.4 2.1 10.1 2.3C9.8 2.1 9.4 2 9 2C7.9 2 7 2.9 7 4V7.5C7 9.43 8.57 11 10.5 11H12.5C14.43 11 16 9.43 16 7.5V4C16 2.9 15.1 2 14 2C13.7 2 13.4 2.1 13.1 2.3C12.8 2.1 12.4 2 12 2Z"/>
    <path d="M9 15H15V17H9V15Z" fill="#f59e0b"/>
    <path d="M8 19H16V21H8V19Z" fill="#b45309"/>
</svg>